<?xml version="1.0"?>
<svg viewBox="0 0 312 60" xmlns="http://www.w3.org/2000/svg" xmlns:svg="http://www.w3.org/2000/svg">
 <!-- Created with SVG-edit - https://github.com/SVG-Edit/svgedit-->
 <g class="layer">
  <title>Layer 1</title>
  <g id="svg_1" transform="matrix(0.9073 0 0 0.9073 0 0)">
   <path d="m157.12,25.59c-6.88,0 -13.96,5.52 -13.96,15.18c0,8.83 6.22,15.06 13.96,15.06c6.39,0 9.24,-4.29 9.24,-4.29l0,1.87c0,0.89 0.84,1.87 1.87,1.87l4.62,0l0,-29.03l-6.49,0l0,3.69s-2.87,-4.35 -9.24,-4.35zm1.16,5.94c5.67,0 8.64,4.98 8.64,9.23c0,4.74 -3.53,9.24 -8.63,9.24c-4.26,0 -8.53,-3.45 -8.53,-9.3c0,-5.27 3.67,-9.17 8.52,-9.17zm23.59,23.75c-1,0 -1.87,-0.71 -1.87,-1.87l0,-27.16l6.49,0l0,3.59c1.47,-2.21 4.34,-4.26 8.75,-4.26c7.2,0 11.04,5.75 11.04,11.12l0,18.58l-4.51,0c-1.18,0 -1.98,-0.99 -1.98,-1.98l0,-15.17c0,-2.98 -1.82,-6.6 -6.04,-6.6c-4.55,0 -7.26,4.31 -7.26,8.36l0,15.39l-4.62,0zm43.32,-29.69c-6.88,0 -13.96,5.52 -13.96,15.18c0,8.83 6.22,15.06 13.96,15.06c6.39,0 9.24,-4.29 9.24,-4.29l0,1.87c0,0.89 0.84,1.87 1.87,1.87l4.62,0l0,-43.54l-6.49,0l0,18.19s-2.87,-4.34 -9.24,-4.34zm1.16,5.94c5.67,0 8.64,4.98 8.64,9.23c0,4.74 -3.53,9.24 -8.63,9.24c-4.26,0 -8.53,-3.45 -8.53,-9.3c0,-5.27 3.67,-9.17 8.52,-9.17zm23.59,23.75c-1,0 -1.87,-0.71 -1.87,-1.87l0,-27.16l6.49,0l0,4.84c1.11,-2.71 3.52,-5.17 7.8,-5.17c1.2,0 2.31,0.22 2.31,0.22l0,6.71s-1.39,-0.55 -3.08,-0.55c-4.55,0 -7.03,4.3 -7.03,8.35l0,14.63l-4.62,0zm54.1,0c-1,0 -1.87,-0.71 -1.87,-1.87l0,-27.16l6.49,0l0,29.03l-4.62,0zm23.64,-29.69c-6.88,0 -13.96,5.52 -13.96,15.18c0,8.83 6.22,15.06 13.96,15.06c6.39,0 9.24,-4.29 9.24,-4.29l0,1.87c0,0.89 0.84,1.87 1.87,1.87l4.62,0l0,-43.54l-6.49,0l0,18.19s-2.87,-4.34 -9.24,-4.34zm1.16,5.94c5.67,0 8.64,4.98 8.64,9.23c0,4.74 -3.53,9.24 -8.63,9.24c-4.26,0 -8.53,-3.45 -8.53,-9.3c0,-5.27 3.67,-9.17 8.52,-9.17z" fill="#ffffff" id="svg_2"/>
   <circle cx="305.36" cy="15.7" fill="#ffffff" id="svg_3" r="4.29"/>
   <path d="m281.78,25.58c-7.21,0 -15.13,5.38 -15.13,15.14c0,8.88 6.75,15.11 15.12,15.11c10.31,0 15.35,-8.29 15.35,-15.06c0,-8.31 -6.49,-15.19 -15.34,-15.19zm0.03,6.06c4.98,0 8.7,4.02 8.7,9.09c0,5.17 -3.95,9.15 -8.69,9.15c-4.4,0 -8.68,-3.58 -8.68,-9.06c0,-5.57 4.07,-9.18 8.67,-9.18z" fill="#ffffff" id="svg_4"/>
  </g>
  <path d="m74.33,19.08l8.23,-14.27c0.46,-0.8 0.18,-1.81 -0.6,-2.28c-0.79,-0.46 -1.8,-0.2 -2.26,0.6l-8.35,14.45c-6.35,-2.91 -13.51,-4.53 -21.23,-4.53c-7.7,0 -14.87,1.62 -21.24,4.53l-8.35,-14.45a1.66,1.66 0 0 0 -2.26,-0.6a1.66,1.66 0 0 0 -0.6,2.28l8.23,14.27c-14.21,7.69 -23.81,22.06 -25.41,38.88l99.26,0c-1.58,-16.83 -11.2,-31.19 -25.41,-38.88l-0.03,0zm-47,24.95c-2.29,0 -4.16,-1.86 -4.16,-4.16c0,-2.29 1.86,-4.16 4.16,-4.16c2.29,0 4.16,1.86 4.16,4.16c0.01,2.29 -1.86,4.16 -4.16,4.16zm45.56,0c-2.29,0 -4.16,-1.86 -4.16,-4.16c0,-2.29 1.87,-4.16 4.16,-4.16c2.29,0 4.16,1.86 4.16,4.16c0.01,2.29 -1.86,4.16 -4.16,4.16z" fill="#ffffff" id="svg_5"/>
 </g>
</svg>