<?xml version="1.0"?>
<svg viewBox="0 0 462 100" xmlns="http://www.w3.org/2000/svg" xmlns:svg="http://www.w3.org/2000/svg">
 <g class="layer">
  <title>Layer 1</title>
  <path d="m45.69,7.85c18,-2.76 36.02,-5.35 54.05,-7.85c0.01,15.8 0,31.59 0.01,47.38c-18.02,0.07 -36.03,0.35 -54.06,0.4c-0.01,-13.32 -0.01,-26.62 0,-39.93zm-45.69,6.37c13.55,-2.09 27.15,-3.89 40.76,-5.6c0.01,13.11 0.01,26.2 0.02,39.3c-13.59,-0.01 -27.19,0.2 -40.78,0.16l0,-33.86zm215.24,2.21c3.56,-2.28 8.12,2.46 6.04,6.03c-1,2.61 -4.68,3.61 -6.76,1.69c-2.61,-1.77 -2.24,-6.48 0.72,-7.72zm93.34,-0.47c2.28,-0.01 4.57,-0.01 6.85,-0.01l0,63.97l-6.83,0c0.01,-2.32 -0.03,-4.64 -0.19,-6.96c-4.95,8.89 -18.18,10.85 -25.74,4.26c-5.4,-4.65 -7.05,-12.21 -6.76,-19.05c0.06,-6.95 2.34,-14.33 7.87,-18.86c7.18,-5.92 19.92,-5.58 24.85,3.12c-0.1,-8.83 -0.02,-17.65 -0.05,-26.47zm-14.76,25.29c-5.48,0.87 -9.2,5.87 -10.22,11.05c-1.35,6.23 -1.11,13.45 2.82,18.75c4.25,5.65 13.63,5.77 18.17,0.44c3.1,-3.22 3.98,-7.84 4,-12.16c0.04,-4.56 0.42,-9.7 -2.6,-13.5c-2.68,-3.8 -7.67,-5.52 -12.17,-4.58zm-163.65,-21.89c2.57,0.01 5.14,0.01 7.72,0.05c4.01,14.48 7.96,28.99 11.98,43.49c0.87,3.04 1.5,6.15 1.88,9.3c4.18,-17.79 9.89,-35.2 14.69,-52.84c2.23,0.01 4.45,0.01 6.68,0.03c3.53,12.55 6.83,25.16 10.33,37.73c1.29,5 2.96,9.94 3.48,15.11c3.78,-17.76 9.17,-35.17 13.46,-52.82c2.53,-0.04 5.07,-0.04 7.61,-0.04c-5.53,20.21 -11.29,40.36 -16.89,60.55l-8.23,0c-4.06,-14.5 -8.08,-29.01 -12.18,-43.48c-0.69,-2.34 -0.97,-4.76 -1.19,-7.18c-0.32,2.09 -0.61,4.2 -1.15,6.24c-4.15,14.76 -8.35,29.5 -12.39,44.28c-2.74,0.15 -5.48,0.16 -8.22,0.14c-5.88,-20.18 -11.72,-40.37 -17.58,-60.56zm108.65,24.14c3.92,-6.98 13.05,-10.19 20.42,-6.96c5.86,2.29 8.04,9.07 8.23,14.85c0.32,9.51 0.05,19.02 0.13,28.53c-2.28,0 -4.57,0 -6.85,-0.01c-0.11,-9.13 0.24,-18.28 -0.16,-27.41c-0.18,-4.52 -2.1,-9.96 -7.03,-11.11c-7.18,-2.17 -14.35,4.3 -14.59,11.41c-0.2,9.03 -0.01,18.08 -0.07,27.12l-6.86,0c0.01,-14.48 0.01,-28.94 0,-43.41l6.87,0c-0.01,2.33 -0.03,4.66 -0.09,6.99zm103.28,-8.06c6.11,-0.54 12.88,0.42 17.47,4.84c5.19,4.79 6.73,12.22 6.45,19.02c-0.08,6.11 -2.35,12.31 -6.82,16.57c-9.35,8.5 -26.7,6.64 -32.63,-5.05c-4.66,-9.79 -3.72,-23.33 4.79,-30.77c3.05,-2.58 6.91,-3.76 10.74,-4.61zm-1.24,6.21c-10.06,3.1 -11.77,16.24 -8.62,24.89c2.5,7.68 12.25,11.08 19.26,7.49c4.74,-2.18 6.89,-7.52 7.35,-12.42c0.52,-5.73 0.06,-12.21 -3.98,-16.68c-3.43,-3.86 -9.23,-4.7 -14.01,-3.28zm105.18,-6.24c4.28,-0.29 8.64,0.12 12.68,1.69c1.11,2.13 0.25,4.92 0.51,7.3c-4.81,-3 -11.43,-4.92 -16.65,-1.86c-3.58,1.94 -3.75,7.69 -0.27,9.82c5,3.24 11.33,4.08 15.77,8.24c4.89,4.71 3.7,13.75 -2.02,17.28c-6.96,4.44 -16.12,4 -23.41,0.62c0,-2.56 -0.01,-5.12 -0.06,-7.68c5.19,3.96 12.48,6.15 18.68,3.34c3.62,-1.82 3.8,-7.38 0.62,-9.72c-5,-3.68 -11.84,-4.26 -16.27,-8.85c-4.37,-4.41 -3.59,-12.52 1.29,-16.26c2.52,-2.32 5.94,-3.02 9.13,-3.92zm-232.28,1.11c2.29,-0.01 4.57,-0.01 6.86,-0.01l0,43.41l-6.86,0c0,-14.48 0.02,-28.94 0,-43.4zm155.11,-0.01l7.15,0c2.84,10.34 5.58,20.7 8.47,31.02c0.58,1.95 0.8,3.96 1,5.97c3.24,-12.45 7.32,-24.68 10.99,-37l6.25,0.03c3.14,12.34 7.05,24.49 9.65,36.96c2.69,-12.4 6.5,-24.52 9.49,-36.84c2.29,-0.12 4.59,-0.15 6.89,-0.18c-4.35,14.48 -8.52,29 -12.89,43.45l-7.11,0c-3.08,-11.77 -7.08,-23.31 -9.58,-35.2c-2.98,11.88 -7.12,23.44 -10.52,35.2l-6.87,0c-4.29,-14.48 -8.68,-28.92 -12.92,-43.41zm-368.87,15.69c13.58,-0.04 27.16,0.18 40.75,0.15c0,13.14 0.03,26.28 0.01,39.41c-13.57,-2.01 -27.17,-3.77 -40.76,-5.61l0,-33.95zm45.61,0.53l54.13,0c0.02,15.75 0,31.51 0,47.27c-17.99,-2.7 -36.02,-5.2 -54.05,-7.64c-0.02,-13.21 -0.05,-26.41 -0.08,-39.63z" fill="#ffffff" id="svg_1"/>
 </g>
</svg>